<?xml version="1.0" standalone="no"?>
<!DOCTYPE svg PUBLIC "-//W3C//DTD SVG 20010904//EN"
 "http://www.w3.org/TR/2001/REC-SVG-20010904/DTD/svg10.dtd">
<svg version="1.0" xmlns="http://www.w3.org/2000/svg"
 width="408.000000pt" height="92.000000pt" viewBox="0 0 408.000000 92.000000"
 preserveAspectRatio="xMidYMid meet">

<g transform="translate(0.000000,92.000000) scale(0.100000,-0.100000)"
fill="#000000" stroke="none">
<path d="M601 768 c-133 -338 -241 -625 -241 -640 0 -24 28 -35 44 -17 20 22
258 650 252 665 -9 22 -45 17 -55 -8z"/>
<path d="M3502 708 c-28 -28 -7 -78 33 -78 27 0 45 18 45 45 0 27 -18 45 -45
45 -12 0 -26 -5 -33 -12z"/>
<path d="M2130 619 c0 -69 -1 -71 -22 -64 -53 17 -89 17 -114 1 -32 -22 -64
-74 -64 -106 -1 -18 -6 -10 -18 25 -55 161 -272 107 -272 -68 0 -103 54 -162
150 -161 32 0 68 7 87 17 29 16 32 20 20 38 -8 14 -18 18 -32 13 -53 -17 -90
-15 -118 6 -15 12 -27 30 -27 40 0 17 10 19 104 22 l104 3 5 -36 c7 -53 34
-87 77 -100 34 -10 44 -9 79 9 33 18 41 19 41 7 0 -10 11 -15 35 -15 l35 0 0
220 0 220 -35 0 -35 0 0 -71z m-301 -125 c12 -15 21 -35 21 -45 0 -17 -8 -19
-65 -19 -63 0 -65 1 -65 25 0 32 33 65 64 65 15 0 33 -11 45 -26z m283 -1 c28
-25 26 -138 -4 -170 -51 -54 -98 -15 -98 82 0 71 18 105 57 105 15 0 35 -7 45
-17z"/>
<path d="M205 574 c-149 -118 -149 -118 -139 -137 17 -28 266 -218 282 -215 9
2 18 12 20 23 2 15 -25 42 -108 107 -60 48 -110 91 -110 95 0 5 49 46 110 93
81 63 109 91 110 108 0 43 -42 24 -165 -74z"/>
<path d="M650 648 c1 -17 29 -45 110 -108 60 -47 110 -88 110 -93 0 -4 -50
-46 -110 -94 -85 -66 -110 -92 -108 -107 2 -12 11 -22 20 -24 17 -3 266 187
282 216 10 18 5 23 -160 152 -105 83 -144 98 -144 58z"/>
<path d="M1149 661 c-46 -15 -69 -31 -85 -63 -35 -67 7 -131 108 -163 29 -10
61 -24 71 -33 21 -18 22 -65 2 -82 -27 -22 -87 -23 -130 -1 -39 21 -40 21 -59
2 -27 -27 -9 -47 61 -67 136 -39 253 39 222 150 -12 42 -43 66 -127 96 -68 25
-89 48 -72 80 15 28 68 35 118 15 44 -18 72 -10 72 20 0 30 -128 63 -181 46z"/>
<path d="M2520 455 l0 -205 40 0 40 0 0 90 0 90 60 0 60 0 0 -90 0 -90 40 0
c38 0 40 1 40 33 l1 32 14 -26 c14 -26 59 -49 94 -49 9 0 34 9 55 20 35 17 41
18 60 5 11 -8 28 -15 37 -15 19 0 33 40 19 54 -6 6 -10 49 -10 98 0 102 -11
131 -55 153 -58 27 -193 11 -181 -22 3 -8 6 -18 6 -23 0 -4 29 -5 64 -3 60 5
65 4 81 -20 23 -35 12 -47 -41 -47 -55 0 -106 -20 -128 -51 -15 -22 -16 -15
-16 124 l0 147 -40 0 -40 0 0 -80 0 -80 -60 0 -60 0 0 80 0 80 -40 0 -40 0 0
-205z m478 -87 c4 -35 -29 -68 -67 -68 -36 0 -55 22 -47 55 8 30 38 45 81 42
24 -2 31 -7 33 -29z"/>
<path d="M3295 559 c-11 -6 -30 -22 -41 -36 l-22 -26 -7 32 c-6 30 -9 31 -56
31 -46 0 -49 -2 -49 -25 0 -18 5 -25 20 -25 19 0 20 -7 20 -105 0 -98 -1 -105
-20 -105 -15 0 -20 -7 -20 -25 0 -25 1 -25 90 -25 89 0 90 0 90 25 0 21 -5 25
-30 25 l-30 0 0 60 c0 66 18 113 49 130 32 16 41 12 41 -20 0 -25 4 -30 25
-30 21 0 25 5 25 28 0 15 3 44 6 65 l7 37 -39 0 c-22 0 -48 -5 -59 -11z"/>
<path d="M1340 553 c0 -25 95 -290 107 -300 22 -17 1 -49 -42 -64 -29 -11 -35
-18 -35 -42 0 -22 4 -27 18 -23 9 2 28 8 42 11 32 9 68 42 88 80 8 17 39 101
68 188 l53 157 -39 0 c-43 0 -37 11 -86 -170 -9 -36 -20 -69 -24 -73 -4 -4
-22 49 -40 118 l-33 125 -38 0 c-22 0 -39 -3 -39 -7z"/>
<path d="M3420 535 c0 -23 4 -25 45 -25 l46 0 -3 -102 -3 -103 -42 -3 c-38 -3
-43 -6 -43 -28 l0 -24 125 0 125 0 0 24 c0 22 -5 25 -42 28 l-43 3 -3 128 -3
127 -79 0 c-79 0 -80 0 -80 -25z"/>
<path d="M3712 533 c3 -27 5 -28 75 -31 l73 -3 -80 -97 c-58 -69 -80 -104 -80
-124 l0 -28 125 0 125 0 0 30 0 30 -75 0 c-41 0 -75 3 -75 8 0 4 34 47 75 97
54 64 75 97 75 117 l0 28 -121 0 -120 0 3 -27z"/>
</g>
</svg>
